<?xml version="1.0" encoding="UTF-8" standalone="no"?>
<!-- Created with Inkscape (http://www.inkscape.org/) -->

<svg
   width="300mm"
   height="300mm"
   viewBox="0 0 300 300"
   version="1.1"
   id="svg1"
   xml:space="preserve"
   inkscape:version="1.4 (e7c3feb1, 2024-10-09)"
   sodipodi:docname="aula.svg"
   inkscape:export-filename="aula.png"
   inkscape:export-xdpi="400"
   inkscape:export-ydpi="400"
   xmlns:inkscape="http://www.inkscape.org/namespaces/inkscape"
   xmlns:sodipodi="http://sodipodi.sourceforge.net/DTD/sodipodi-0.dtd"
   xmlns="http://www.w3.org/2000/svg"
   xmlns:svg="http://www.w3.org/2000/svg"><sodipodi:namedview
     id="namedview1"
     pagecolor="#ffffff"
     bordercolor="#000000"
     borderopacity="0.25"
     inkscape:showpageshadow="2"
     inkscape:pageopacity="0.0"
     inkscape:pagecheckerboard="0"
     inkscape:deskcolor="#d1d1d1"
     inkscape:document-units="mm"
     inkscape:zoom="0.22428549"
     inkscape:cx="211.78365"
     inkscape:cy="414.65009"
     inkscape:window-width="1920"
     inkscape:window-height="1027"
     inkscape:window-x="0"
     inkscape:window-y="25"
     inkscape:window-maximized="0"
     inkscape:current-layer="g2" /><defs
     id="defs1" /><g
     inkscape:label="Layer 1"
     inkscape:groupmode="layer"
     id="layer1"><text
       xml:space="preserve"
       style="font-weight:900;font-size:52.9167px;line-height:1;font-family:'Arial Black';-inkscape-font-specification:'Arial Black,  Heavy';text-align:center;letter-spacing:2.17488px;writing-mode:lr-tb;direction:ltr;text-anchor:middle;fill:#faf1ec;stroke:#000000;stroke-width:1.3;stroke-linecap:square;stroke-linejoin:bevel"
       x="59.299397"
       y="235.66728"
       id="text1"><tspan
         sodipodi:role="line"
         id="tspan1"
         x="59.299397"
         y="235.66728"
         style="stroke-width:1.3" /></text><g
       id="g2"
       transform="translate(20.135708,10.708418)"><g
         id="g1"
         transform="translate(-14.475345,1.2206032)"><path
           style="fill:#000000;stroke-width:2.08966"
           d="M 23.205143,231.37858 C 13.521958,231.0006 5.078438,223.80893 2.466457,214.62489 c -2.7212,-6.24031 -2.297611,-14.02575 0.07122,-20.39731 2.856651,-8.31359 10.243401,-14.17273 18.35885,-17.01025 10.371712,-4.00666 21.43902,-5.94667 32.040312,-9.3095 7.603556,-1.78073 17.140708,-3.63229 20.01822,-12.00529 2.761733,-9.16146 1.392169,-19.36688 -4.174574,-27.34284 -5.986949,-9.49251 -18.890637,-9.88203 -28.50263,-6.75801 -7.808462,2.682 -14.451652,9.05059 -15.464918,17.53171 -0.917336,8.60863 -11.650394,17.77201 -19.422059,11.0305 -7.555529,-4.58102 -2.749119,-13.25106 1.384421,-18.36981 7.159503,-7.03653 14.77464,-13.96488 24.170291,-17.82801 6.441326,-3.66612 13.834893,-5.30701 21.23776,-5.77973 9.693465,-1.46759 19.977219,-0.29826 29.087622,3.30866 6.81079,3.30181 12.58738,9.1166 14.48502,16.64264 3.42023,10.17499 0.97843,20.96579 1.46766,31.44466 -0.83677,13.52581 -1.48331,27.18982 -0.39821,40.72164 0.42934,8.51336 11.176838,14.72291 17.795518,8.21521 5.61461,-5.81197 11.07476,-13.66709 20.80374,-10.85447 10.79831,3.29241 8.65464,17.13127 1.15935,22.87077 -7.19935,5.5744 -15.98672,8.81596 -24.9624,10.09034 -9.00796,1.2978 -17.202848,-3.18588 -25.198638,-6.32016 -10.751023,-6.75119 -24.509219,-4.45396 -35.183764,1.19305 -8.552561,4.16419 -18.067529,6.74649 -27.65653,5.93301 l -0.209076,-0.0399 z m 23.221345,-14.92801 c 9.749585,-1.67957 18.474248,-6.50994 26.460928,-12.05765 4.552987,-4.62963 6.853216,-10.97941 6.435971,-17.52193 1.834105,-8.52987 -5.897238,-17.52677 -14.494941,-13.1173 -8.995915,2.9413 -18.447801,4.73216 -26.76825,9.27358 -9.698025,4.46771 -14.82535,18.57718 -7.943939,27.47974 3.809505,4.41136 10.54512,7.36407 16.310231,5.94356 z"
           id="path2"
           sodipodi:nodetypes="ccccccccccccccccccccccccccccccccc" /><path
           style="fill:#000000;stroke:#000000;stroke-width:1.66546;stroke-dasharray:none;stroke-opacity:1"
           d="m 227.80095,193.61871 c -4.81125,-0.18786 -9.00656,-3.76111 -10.30434,-8.32435 -1.35208,-3.10059 -1.14161,-6.96893 0.0353,-10.13474 1.41938,-4.13074 5.0896,-7.04195 9.12189,-8.45182 5.15335,-1.99076 10.65233,-2.9547 15.91974,-4.62557 3.77796,-0.88478 8.51664,-1.80475 9.94639,-5.96502 1.37221,-4.55203 0.69174,-9.62276 -2.0742,-13.58573 -2.97472,-4.71651 -9.38613,-4.91006 -14.162,-3.35784 -3.87977,1.3326 -7.18054,4.49693 -7.684,8.71092 -0.45579,4.27732 -5.78869,8.83032 -9.65015,5.48068 -3.7541,-2.27615 -1.36595,-6.584 0.68785,-9.12733 3.55733,-3.49623 7.34104,-6.93869 12.0094,-8.85815 3.20048,-1.82158 6.87411,-2.63688 10.55233,-2.87175 4.81637,-0.72919 9.92603,-0.14816 14.45267,1.64397 3.38406,1.64055 6.25425,4.52972 7.19712,8.26916 1.6994,5.0556 0.48614,10.41719 0.72923,15.62379 -0.41576,6.72051 -0.737,13.50971 -0.19789,20.23321 0.21334,4.23 5.5534,7.31532 8.842,4.08186 2.78972,-2.88776 5.50268,-6.79071 10.33667,-5.39322 5.36533,1.63589 4.30021,8.51195 0.57606,11.36371 -3.57712,2.76974 -7.94328,4.38037 -12.40299,5.01356 -4.47574,0.64482 -8.5475,-1.58296 -12.52034,-3.14028 -5.34182,-3.35443 -12.17781,-2.21301 -17.48162,0.59279 -4.24949,2.06904 -8.97716,3.35211 -13.7416,2.94791 l -0.10386,-0.0188 z m 11.53791,-7.41723 c 4.84423,-0.83452 9.17923,-3.23458 13.14754,-5.99105 2.26222,-2.3003 3.40512,-5.45529 3.1978,-8.70605 0.91132,-4.2382 -2.93012,-8.70847 -7.20203,-6.51754 -4.46976,1.46144 -9.16609,2.35124 -13.30025,4.60772 -4.81861,2.21987 -7.36622,9.23038 -3.94707,13.65378 1.89281,2.19184 5.23951,3.65895 8.10401,2.95314 z"
           id="path2-8"
           sodipodi:nodetypes="ccccccccccccccccccccccccccccccccc" /><path
           style="font-weight:600;font-size:57.9048px;line-height:1;font-family:Inter;-inkscape-font-specification:'Inter Semi-Bold';text-align:center;letter-spacing:2.37989px;text-anchor:middle;stroke-width:2.97262;stroke-linecap:square;stroke-linejoin:bevel"
           d="m 136.41395,194.11467 c -23.6792,0.58024 -23.05707,-27.46035 -23.14614,-43.91667 -6.42491,-13.19854 15.36497,-31.09803 16.59648,-10.90642 -3.51927,14.48312 -3.61737,49.94365 19.76876,39.26856 15.87893,-11.83815 -5.54364,-43.69949 13.03472,-48.07752 12.79339,-2.70109 5.96545,14.95875 7.60057,22.46679 v 39.92453 c -11.56171,3.24022 -18.34349,-2.9919 -14.32768,-14.76529 1.98498,10.13682 -11.22092,16.0758 -19.52671,16.00602 z m 66.95089,-89.27393 v 88.0332 c -13.97824,4.49582 -16.85156,-4.94623 -14.88883,-16.22634 v -71.80686 z"
           id="text2"
           aria-label="ula"
           sodipodi:nodetypes="cccccccccccccc" /><path
           d="m 99.981422,107.7694 c -3.05086,-6.32229 2.732828,-13.042888 1.203578,-19.204438 -5.954528,-0.23226 -12.630328,10.2734 -17.427018,5.71466 1.10031,-5.34199 12.5937,-9.40872 10.37743,-14.17063 -4.31398,-1.93701 -17.690956,0.16383 -15.567326,-5.70818 4.52476,-3.16074 15.502626,1.24082 16.074916,-5.00465 -2.68711,-4.2374 -12.931737,-8.56126 -9.90767,-13.51732 5.76639,0.42217 12.48174,8.603 16.634998,6.51913 0.85204,-5.70865 -5.269058,-14.512515 -0.39856,-18.037147 5.3022,2.425968 4.79247,17.506537 11.17136,14.098327 2.80819,-3.39342 4.38081,-16.364505 9.4456,-12.851174 1.67455,5.069005 -6.65951,18.001414 1.93124,16.630004 3.24713,-2.13728 15.46168,-10.6943 12.55704,-2.16231 -3.0289,3.39874 -16.3295,11.09546 -5.4813,12.78947 4.73043,-1.39955 19.45228,3.06026 8.02479,5.70498 -5.11329,-0.39447 -17.7448,1.2665 -9.17383,7.20584 4.08165,2.37638 12.47158,13.2154 2.55129,8.8835 -5.6638,-3.39236 -16.30723,-10.83746 -11.7757,1.5291 2.68613,2.99142 1.92086,16.189348 -2.38255,8.447808 -3.04879,-4.04353 -6.88453,-19.554328 -11.07889,-7.644978 -2.31384,3.198518 -2.56347,9.819648 -6.779398,10.778008 z"
           style="fill:#000000;stroke-width:2.08966"
           id="path1" /></g></g></g></svg>
