<?xml version="1.0" encoding="UTF-8" standalone="no"?>
<!-- Created with Inkscape (http://www.inkscape.org/) -->

<svg
   width="210mm"
   height="297mm"
   viewBox="0 0 210 297"
   version="1.1"
   id="svg1"
   xml:space="preserve"
   inkscape:version="1.4 (e7c3feb1, 2024-10-09)"
   sodipodi:docname="aula.svg"
   inkscape:export-filename="aula.png"
   inkscape:export-xdpi="400"
   inkscape:export-ydpi="400"
   xmlns:inkscape="http://www.inkscape.org/namespaces/inkscape"
   xmlns:sodipodi="http://sodipodi.sourceforge.net/DTD/sodipodi-0.dtd"
   xmlns="http://www.w3.org/2000/svg"
   xmlns:svg="http://www.w3.org/2000/svg"><sodipodi:namedview
     id="namedview1"
     pagecolor="#ffffff"
     bordercolor="#000000"
     borderopacity="0.25"
     inkscape:showpageshadow="2"
     inkscape:pageopacity="0.0"
     inkscape:pagecheckerboard="0"
     inkscape:deskcolor="#d1d1d1"
     inkscape:document-units="mm"
     inkscape:zoom="0.84815828"
     inkscape:cx="250.54286"
     inkscape:cy="425.6281"
     inkscape:window-width="1920"
     inkscape:window-height="1027"
     inkscape:window-x="0"
     inkscape:window-y="25"
     inkscape:window-maximized="0"
     inkscape:current-layer="g2" /><defs
     id="defs1" /><g
     inkscape:label="Layer 1"
     inkscape:groupmode="layer"
     id="layer1"><text
       xml:space="preserve"
       style="font-weight:900;font-size:52.9167px;line-height:1;font-family:'Arial Black';-inkscape-font-specification:'Arial Black,  Heavy';text-align:center;letter-spacing:2.17488px;writing-mode:lr-tb;direction:ltr;text-anchor:middle;fill:#faf1ec;stroke:#000000;stroke-width:1.3;stroke-linecap:square;stroke-linejoin:bevel"
       x="59.299397"
       y="235.66728"
       id="text1"><tspan
         sodipodi:role="line"
         id="tspan1"
         x="59.299397"
         y="235.66728"
         style="stroke-width:1.3" /></text><g
       id="g2"
       transform="translate(20.135708,10.708418)"><path
         style="fill:#000000"
         d="m 26.895772,182.44363 c -4.633857,-0.18088 -8.674476,-3.62243 -9.924431,-8.01742 -1.302221,-2.98628 -1.099514,-6.71198 0.03408,-9.76107 1.367041,-3.97844 4.901946,-6.78231 8.785568,-8.1402 4.963349,-1.91737 10.259573,-2.84576 15.332787,-4.45503 3.638657,-0.85216 8.20263,-1.73822 9.579654,-5.74509 1.321618,-4.38419 0.666218,-9.26796 -1.997729,-13.08483 -2.865035,-4.54261 -9.040053,-4.72901 -13.639841,-3.23402 -3.736714,1.28346 -6.915791,4.33113 -7.400686,8.38974 -0.438988,4.11963 -5.575258,8.50474 -9.294363,5.27861 -3.615674,-2.19223 -1.315582,-6.34125 0.66251,-8.79081 3.426157,-3.36731 7.070356,-6.68285 11.566614,-8.53154 3.082476,-1.75441 6.620643,-2.53965 10.163261,-2.76587 4.638776,-0.70231 9.560033,-0.14273 13.919787,1.58335 3.259279,1.58007 6.023649,4.36272 6.931759,7.96428 1.63674,4.86921 0.46822,10.03311 0.70234,15.04774 -0.40043,6.47273 -0.70983,13.0116 -0.19056,19.48721 0.20546,4.07404 5.34864,7.0456 8.51599,3.93136 2.68685,-2.7813 5.29979,-6.54034 9.95556,-5.19437 5.1675,1.57557 4.14165,8.19811 0.55481,10.94473 -3.44523,2.66761 -7.6504,4.21885 -11.94568,4.8287 -4.31073,0.62106 -8.23237,-1.52459 -12.058726,-3.02449 -5.144868,-3.23076 -11.728808,-2.13143 -16.837077,0.57093 -4.0928,1.99276 -8.646157,3.22851 -13.234942,2.83922 l -0.100053,-0.0191 z m 11.112499,-7.14375 c 4.665632,-0.80375 8.840791,-3.11531 12.662791,-5.77015 2.178817,-2.21549 3.279584,-5.25416 3.079913,-8.38506 0.877705,-4.08194 -2.822104,-8.38738 -6.936507,-6.27724 -4.304966,1.40755 -8.828135,2.26456 -12.809859,4.43784 -4.640958,2.13801 -7.094623,8.89005 -3.801546,13.15034 1.823026,2.11104 5.046333,3.52405 7.805208,2.84427 z"
         id="path2"
         sodipodi:nodetypes="ccccccccccccccccccccccccccccccccc" /><path
         style="fill:#000000;stroke:#000000;stroke-width:0.797;stroke-dasharray:none;stroke-opacity:1"
         d="m 124.80443,164.37377 c -2.30241,-0.0899 -4.31006,-1.79987 -4.93111,-3.98359 -0.64703,-1.48378 -0.54631,-3.33496 0.0169,-4.84995 0.67924,-1.97675 2.43561,-3.3699 4.36525,-4.04459 2.46612,-0.95267 5.09764,-1.41396 7.61834,-2.21355 1.80793,-0.42341 4.07561,-0.86366 4.75981,-2.85454 0.65667,-2.17836 0.33103,-4.60494 -0.9926,-6.50141 -1.42354,-2.25707 -4.4917,-2.34969 -6.77718,-1.60688 -1.85665,0.63771 -3.43622,2.15199 -3.67715,4.16858 -0.21812,2.0469 -2.77016,4.22572 -4.61805,2.62276 -1.79651,-1.08924 -0.65367,-3.15075 0.32917,-4.36785 1.70235,-1.67311 3.51303,-3.32049 5.74706,-4.23904 1.53158,-0.87171 3.28958,-1.26187 5.04978,-1.37427 2.30486,-0.34895 4.75007,-0.0709 6.91628,0.78672 1.61943,0.78508 2.99295,2.16768 3.44416,3.95718 0.81324,2.41934 0.23264,4.98511 0.34897,7.47671 -0.19896,3.21608 -0.35269,6.46503 -0.0947,9.68254 0.10209,2.02425 2.65756,3.50072 4.23131,1.95336 1.33501,-1.38193 2.63329,-3.24967 4.94658,-2.58091 2.56756,0.78285 2.05785,4.07337 0.27567,5.43807 -1.71182,1.32545 -3.80123,2.09621 -5.93541,2.39922 -2.14185,0.30858 -4.09038,-0.75752 -5.99157,-1.50277 -2.55631,-1.60525 -5.82765,-1.05903 -8.36577,0.28368 -2.03358,0.99013 -4.29599,1.60414 -6.576,1.41071 l -0.0497,-0.009 z m 5.52143,-3.54949 c 2.31819,-0.39936 4.39269,-1.5479 6.29171,-2.867 1.08258,-1.1008 1.62951,-2.61061 1.5303,-4.16625 0.43611,-2.02818 -1.4022,-4.16741 -3.44651,-3.11895 -2.13899,0.69937 -4.3864,1.12518 -6.36479,2.20501 -2.30593,1.06231 -3.52508,4.41717 -1.88886,6.53397 0.9058,1.0489 2.50735,1.75098 3.87815,1.41322 z"
         id="path2-8"
         sodipodi:nodetypes="ccccccccccccccccccccccccccccccccc" /><path
         style="font-weight:600;font-size:57.9048px;line-height:1;font-family:Inter;-inkscape-font-specification:'Inter Semi-Bold';text-align:center;letter-spacing:2.37989px;text-anchor:middle;stroke-width:1.42254;stroke-linecap:square;stroke-linejoin:bevel"
         d="m 81.071477,164.61111 c -11.331602,0.27767 -11.033885,-13.14106 -11.07651,-21.01618 -3.074617,-6.31612 7.352858,-14.88186 7.942194,-5.21923 -1.684136,6.93085 -1.731083,23.90037 9.460273,18.79184 7.598812,-5.66511 -2.652891,-20.91225 6.237723,-23.00734 6.122235,-1.2926 2.854751,7.15846 3.637229,10.75141 v 19.10575 c -5.532818,1.5506 -8.778215,-1.43176 -6.856464,-7.06588 0.949904,4.85094 -5.369733,7.69302 -9.344445,7.65963 z m 32.039133,-42.72175 v 42.128 c -6.68924,2.15146 -8.06426,-2.367 -7.125,-7.76506 v -34.36294 z"
         id="text2"
         aria-label="ula"
         sodipodi:nodetypes="cccccccccccccc" /><path
         d="m 63.636809,123.29086 c -1.45998,-3.02551 1.30779,-6.24163 0.57597,-9.19022 -2.84952,-0.11115 -6.044203,4.9163 -8.339643,2.73473 0.52655,-2.55639 6.026673,-4.50251 4.966083,-6.78131 -2.06444,-0.92695 -8.465947,0.0784 -7.449691,-2.73163 2.165309,-1.51256 7.418731,0.59379 7.692601,-2.39496 -1.28591,-2.02779 -6.188443,-4.09696 -4.741284,-6.468667 2.759484,0.20203 5.973094,4.116937 7.960624,3.119707 0.40774,-2.731857 -2.52149,-6.944916 -0.19073,-8.631617 2.53735,1.160939 2.29342,8.377697 5.34602,6.74671 1.34385,-1.62391 2.09642,-7.831182 4.52016,-6.149889 0.80135,2.425756 -3.18689,8.614516 0.92419,7.958236 1.5539,-1.02279 7.399135,-5.117726 6.00913,-1.03477 -1.44947,1.62646 -7.81443,5.3097 -2.62306,6.12036 2.26373,-0.66975 9.308825,1.46448 3.840235,2.7301 -2.446945,-0.18877 -8.491715,0.60608 -4.390105,3.44833 1.95326,1.13721 5.968235,6.32419 1.22091,4.25117 -2.71039,-1.6234 -7.80377,-5.18623 -5.63522,0.73175 1.28544,1.43153 0.91922,7.74736 -1.14016,4.04267 -1.45899,-1.93502 -3.29457,-9.35766 -5.30177,-3.65848 -1.10728,1.53064 -1.22674,4.69916 -3.24426,5.15778 z"
         style="fill:#000000"
         id="path1" /></g></g></svg>
